PathFileType	4	(x/y/z)	S10_M20_T01
DataRate	CameraRate	NumFrames	NumMarkers	Units	OrigDataRate	OrigDataStartFrame	OrigNumFrames
240	240	7	51	mm	240	382	508
Frame#	Time	Sternum			R.Acromium			L.Acromium			Top.Head			R.ASIS			L.ASIS			R.PSIS			L.PSIS			R.Great.Tro			L.Great.Tro			R.Iliac.Crest			L.Iliac.Crest			V.Sacral			R.Thigh.Upper.Post			R.Thigh.Lower.Ant			R.Thigh.Lower.Post			R.Thigh.Upper.Ant			R.Knee.Lat			R.Knee.Med			R.Shank.Upper.Post			R.Shank.Lower.Ant			R.Shank.Lower.Post			R.Shank.Upper.Ant			R.Ankle.Lat			R.Ankle.Med			R.Heel.Upper			R.Heel.Med			R.Heel.Lat			R.Toe.Lat			R.Toe.Med			R.Toe.Tip			L.Thigh.Upper.Post			L.Thigh.Lower.Ant			L.Thigh.Lower.Post			L.Thigh.Upper.Ant			L.Knee.Lat			L.Knee.Med			L.Shank.Upper.Post			L.Shank.Lower.Ant			L.Shank.Lower.Post			L.Shank.Upper.Ant			L.Ankle.Lat			L.Ankle.Med			L.Heel.Upper			L.Heel.Med			L.Heel.Lat			L.Toe.Lat			L.Toe.Med			L.Toe.Tip			Cervical.Spine			Back			
		X1	Y1	Z1	X2	Y2	Z2	X3	Y3	Z3	X4	Y4	Z4	X5	Y5	Z5	X6	Y6	Z6	X7	Y7	Z7	X8	Y8	Z8	X9	Y9	Z9	X10	Y10	Z10	X11	Y11	Z11	X12	Y12	Z12	X13	Y13	Z13	X14	Y14	Z14	X15	Y15	Z15	X16	Y16	Z16	X17	Y17	Z17	X18	Y18	Z18	X19	Y19	Z19	X20	Y20	Z20	X21	Y21	Z21	X22	Y22	Z22	X23	Y23	Z23	X24	Y24	Z24	X25	Y25	Z25	X26	Y26	Z26	X27	Y27	Z27	X28	Y28	Z28	X29	Y29	Z29	X30	Y30	Z30	X31	Y31	Z31	X32	Y32	Z32	X33	Y33	Z33	X34	Y34	Z34	X35	Y35	Z35	X36	Y36	Z36	X37	Y37	Z37	X38	Y38	Z38	X39	Y39	Z39	X40	Y40	Z40	X41	Y41	Z41	X42	Y42	Z42	X43	Y43	Z43	X44	Y44	Z44	X45	Y45	Z45	X46	Y46	Z46	X47	Y47	Z47	X48	Y48	Z48	X49	Y49	Z49	X50	Y50	Z50	X51	Y51	Z51	

382	1.5875	490.92	1268.6	345.27	374.52	1434.1	487.63	369.11	1441.8	180.52	325.86	1742.1	343.75	419.61	992.6	455.67	439.16	1023	227.33	226.84	1022.9	350.38	239.16	1036.3	270.4	337.65	908.18	513.63	387.03	965.91	159.6	321.41	1076.3	492.79	374.42	1101.1	196.14	211.44	994.86	307.84	381.64	705.87	527.93	453.29	634.84	508.52	388.71	616.41	525.42	448.1	726.11	506.43	402.74	492.76	501.42	415.57	484.06	369.75	202.7	403.37	505.06	189.72	312.96	490.34	142.67	359.03	499.79	254.98	353.72	495.49	61.345	283.75	480.8	80.092	272.24	398.16	13.461	317.27	427.54	-9.0425	302.79	398.28	-12.205	308.81	460.72	13.492	139.75	506.75	37.01	116.51	402.51	66.836	66.012	445.88	396.09	682.94	171.27	481.34	619.53	207.02	409.83	591.93	198.67	471.24	705.48	182.6	456.05	513.67	221.68	450.08	519.52	349.26	384.42	303.43	220.07	444.77	212.8	241.9	382.66	226.28	231.11	446.85	289.08	230.49	398.83	103.64	245.41	413.88	115.17	332.94	329.35	78.61	292.02	340.8	45.944	324.35	334.18	48.975	259.66	508.65	42.381	217.07	540.07	43.187	324.2	594.09	55.311	274.4	294.14	1493.2	342.87	204.63	1287.4	331.89
383	1.5917	495.52	1269.7	345.63	378.4	1435	487.56	374.48	1443	180.48	331.03	1743.2	343.62	424.42	993.96	455.19	443.62	1023.9	226.81	231.5	1024	350.33	243.71	1037.2	270.3	342.94	909.62	513.67	391.07	966.43	159.3	326.01	1077.7	492.48	378.94	1101.9	195.75	216.02	995.88	307.85	389.2	707.65	528.1	461.65	637.47	508.4	397.43	618.25	525.66	455.33	728.68	506.2	412.96	494.74	501.54	425.67	486.2	369.79	213.51	404.13	504.86	201.15	313.63	490.16	153.8	359.37	499.64	266.14	354.84	495.33	72.864	283.52	480.57	91.572	272.06	398.23	23.655	316.04	427.34	1.4852	300.94	398.14	-1.6374	307	460.57	28.257	138.8	506.92	52.011	115.93	402.62	83.12	66.255	446.06	398.48	683.46	171.12	483.41	619.47	206.69	411.68	592.33	198.48	473.8	705.44	182.33	457.46	513.71	221.37	451.5	519.53	348.97	385.15	303.66	220	445.23	212.87	241.85	383.15	226.54	231.1	447.55	289.13	230.4	399.03	103.76	245.46	414.13	115.33	332.96	329.47	78.77	292.1	340.89	46.061	324.39	334.28	49.166	259.72	508.73	42.363	217.07	540.18	43.076	324.2	594.25	55.008	274.38	298.77	1494.2	342.41	209.36	1288.4	330.9
384	1.5958	500.09	1270.8	345.94	382.28	1435.9	487.49	379.81	1444.1	180.45	336.19	1744.3	343.52	429.24	995.31	454.68	448.04	1024.7	226.26	236.14	1025.1	350.32	248.24	1038.1	270.25	348.26	911.07	513.73	395.08	966.94	158.99	330.65	1079.1	492.17	383.41	1102.8	195.34	220.58	996.88	307.91	396.77	709.46	528.28	469.98	640.15	508.24	406.15	620.15	525.91	462.55	731.28	505.94	423.1	496.77	501.66	435.73	488.4	369.84	224.26	404.81	504.63	212.58	314.21	490	164.91	359.61	499.47	277.28	355.92	495.18	84.431	283.1	480.33	103.1	271.71	398.3	33.895	314.56	427.17	12.087	298.83	398.02	8.9856	304.92	460.43	43.182	137.7	507.08	67.201	115.23	402.71	99.608	66.415	446.22	400.84	683.99	170.98	485.45	619.41	206.34	413.51	592.75	198.29	476.31	705.42	182.05	458.83	513.77	221.06	452.93	519.55	348.68	385.86	303.9	219.92	445.69	212.95	241.8	383.63	226.8	231.09	448.23	289.19	230.3	399.24	103.89	245.51	414.4	115.5	332.98	329.59	78.934	292.19	340.98	46.18	324.44	334.38	49.368	259.78	508.81	42.344	217.07	540.3	42.971	324.18	594.41	54.703	274.36	303.39	1495.2	341.96	214.07	1289.4	329.95
385	1.6	504.64	1271.9	346.22	386.16	1436.8	487.42	385.1	1445.2	180.43	341.34	1745.4	343.43	434.06	996.65	454.15	452.42	1025.4	225.69	240.76	1026.2	350.35	252.74	1039	270.23	353.61	912.52	513.8	399.04	967.44	158.68	335.33	1080.5	491.86	387.84	1103.6	194.92	225.13	997.86	308.02	404.34	711.3	528.46	478.3	642.86	508.04	414.87	622.09	526.16	469.75	733.91	505.64	433.14	498.83	501.76	445.75	490.66	369.91	234.95	405.41	504.37	224.01	314.7	489.87	176	359.72	499.29	288.39	356.97	495.04	96.049	282.48	480.1	114.69	271.18	398.39	44.189	312.83	427.02	22.771	296.48	397.92	19.674	302.58	460.31	58.259	136.44	507.22	82.568	114.42	402.78	116.28	66.502	446.36	403.17	684.53	170.84	487.46	619.35	206	415.32	593.18	198.1	478.8	705.39	181.75	460.19	513.83	220.75	454.38	519.58	348.4	386.56	304.14	219.85	446.13	213.03	241.73	384.11	227.07	231.08	448.89	289.26	230.2	399.44	104.02	245.56	414.67	115.68	333	329.72	79.104	292.3	341.06	46.3	324.5	334.48	49.58	259.85	508.89	42.326	217.07	540.42	42.872	324.15	594.58	54.397	274.33	307.99	1496.2	341.53	218.76	1290.4	329.04
386	1.6042	509.17	1272.9	346.44	390.05	1437.7	487.35	390.35	1446.4	180.41	346.47	1746.5	343.36	438.89	997.97	453.6	456.77	1026.2	225.09	245.37	1027.2	350.41	257.22	1039.9	270.24	358.99	913.96	513.88	402.96	967.93	158.36	340.04	1081.8	491.56	392.23	1104.4	194.48	229.65	998.8	308.16	411.92	713.18	528.64	486.58	645.6	507.8	423.58	624.07	526.41	476.92	736.55	505.29	443.08	500.92	501.86	455.72	492.97	369.98	245.59	405.92	504.1	235.45	315.11	489.75	187.06	359.71	499.1	299.47	357.97	494.92	107.72	281.65	479.87	126.33	270.48	398.49	54.547	310.84	426.89	33.546	293.87	397.84	30.438	299.98	460.2	73.481	135.04	507.34	98.098	113.51	402.84	133.12	66.525	446.47	405.48	685.07	170.71	489.44	619.31	205.65	417.1	593.62	197.92	481.25	705.37	181.45	461.51	513.9	220.42	455.87	519.62	348.1	387.24	304.39	219.77	446.56	213.14	241.67	384.57	227.35	231.06	449.54	289.35	230.08	399.66	104.16	245.62	414.95	115.86	333.01	329.86	79.279	292.42	341.16	46.423	324.56	334.59	49.803	259.93	508.97	42.307	217.07	540.54	42.779	324.11	594.75	54.091	274.3	312.57	1497.2	341.12	223.44	1291.4	328.16
387	1.6083	513.68	1274	346.63	393.93	1438.6	487.27	395.56	1447.5	180.39	351.6	1747.6	343.31	443.72	999.27	453.02	461.08	1027	224.48	249.97	1028.2	350.5	261.67	1040.7	270.28	364.38	915.4	513.97	406.85	968.41	158.04	344.78	1083.2	491.26	396.6	1105.2	194.03	234.17	999.72	308.33	419.51	715.09	528.83	494.84	648.36	507.51	432.28	626.1	526.67	484.06	739.2	504.91	452.93	503.03	501.95	465.6	495.32	370.06	256.16	406.35	503.81	246.89	315.42	489.66	198.1	359.58	498.91	310.52	358.92	494.82	119.45	280.63	479.65	138.03	269.6	398.59	64.976	308.61	426.79	44.418	291.03	397.78	41.287	297.12	460.12	88.843	133.51	507.46	113.78	112.51	402.89	150.11	66.493	446.56	407.77	685.62	170.59	491.39	619.26	205.29	418.87	594.07	197.74	483.67	705.36	181.14	462.8	513.98	220.09	457.41	519.68	347.81	387.89	304.64	219.7	446.98	213.25	241.59	385.01	227.63	231.04	450.17	289.44	229.96	399.87	104.31	245.67	415.23	116.05	333.02	329.99	79.461	292.55	341.25	46.547	324.63	334.7	50.037	260.02	509.06	42.29	217.07	540.67	42.691	324.07	594.92	53.788	274.27	317.14	1498.1	340.73	228.11	1292.4	327.31
388	1.6125	518.17	1275	346.76	397.82	1439.4	487.2	400.72	1448.6	180.39	356.71	1748.6	343.27	448.56	1000.5	452.44	465.37	1027.7	223.86	254.55	1029.2	350.61	266.1	1041.5	270.34	369.79	916.83	514.06	410.72	968.87	157.72	349.54	1084.5	490.96	400.94	1106	193.57	238.66	1000.6	308.54	427.1	717.02	529.01	503.05	651.15	507.19	440.97	628.16	526.94	491.18	741.85	504.48	462.67	505.16	502.04	475.38	497.72	370.16	266.67	406.69	503.52	258.33	315.64	489.59	209.12	359.33	498.72	321.53	359.83	494.74	131.23	279.42	479.43	149.78	268.56	398.71	75.485	306.12	426.72	55.394	287.94	397.75	52.229	294	460.06	104.34	131.85	507.56	129.61	111.42	402.93	167.24	66.415	446.63	410.05	686.17	170.47	493.32	619.22	204.92	420.61	594.53	197.57	486.06	705.35	180.82	464.06	514.07	219.75	459.01	519.74	347.5	388.52	304.9	219.63	447.38	213.37	241.5	385.44	227.93	231.03	450.78	289.54	229.83	400.09	104.46	245.74	415.51	116.23	333.02	330.13	79.649	292.7	341.34	46.673	324.72	334.82	50.282	260.12	509.14	42.273	217.07	540.79	42.608	324.02	595.08	53.488	274.24	321.69	1499	340.36	232.76	1293.3	326.51
